<mxfile host="app.diagrams.net" modified="2022-02-25T16:40:16.809Z" agent="5.0 (Windows)" etag="4NZArTjQG6hYTzSiPQKb" version="16.5.6" type="github">
  <diagram name="Page-1" id="0783ab3e-0a74-02c8-0abd-f7b4e66b4bec">
    <mxGraphModel dx="986" dy="498" grid="1" gridSize="10" guides="1" tooltips="1" connect="1" arrows="1" fold="1" page="1" pageScale="1" pageWidth="850" pageHeight="1100" background="none" math="0" shadow="0">
      <root>
        <mxCell id="0" />
        <mxCell id="1" parent="0" />
        <mxCell id="1c1d494c118603dd-1" value="" style="swimlane;html=1;childLayout=stackLayout;startSize=20;rounded=0;shadow=0;comic=0;labelBackgroundColor=none;strokeWidth=1;fontFamily=Verdana;fontSize=12;align=center;fillColor=none;direction=east;" parent="1" vertex="1">
          <mxGeometry x="40" y="20" width="1750" height="990" as="geometry" />
        </mxCell>
        <mxCell id="1c1d494c118603dd-35" style="edgeStyle=none;rounded=0;html=1;labelBackgroundColor=none;startArrow=none;startFill=0;startSize=5;endArrow=classicThin;endFill=1;endSize=5;jettySize=auto;orthogonalLoop=1;strokeWidth=1;fontFamily=Verdana;fontSize=12;entryX=0.4;entryY=0;entryDx=0;entryDy=0;entryPerimeter=0;" parent="1c1d494c118603dd-1" source="1c1d494c118603dd-10" target="jGLkCVWI29NbfTgAQsgJ-3" edge="1">
          <mxGeometry relative="1" as="geometry">
            <mxPoint x="310" y="310" as="targetPoint" />
          </mxGeometry>
        </mxCell>
        <mxCell id="jGLkCVWI29NbfTgAQsgJ-5" style="edgeStyle=orthogonalEdgeStyle;rounded=0;orthogonalLoop=1;jettySize=auto;html=1;exitX=0;exitY=0;exitDx=107.5;exitDy=20;exitPerimeter=0;entryX=0.4;entryY=0.905;entryDx=0;entryDy=0;entryPerimeter=0;dashed=1;" parent="1c1d494c118603dd-1" source="jGLkCVWI29NbfTgAQsgJ-1" target="jGLkCVWI29NbfTgAQsgJ-4" edge="1">
          <mxGeometry relative="1" as="geometry">
            <Array as="points">
              <mxPoint x="230" y="350" />
              <mxPoint x="230" y="190" />
              <mxPoint x="313" y="190" />
            </Array>
          </mxGeometry>
        </mxCell>
        <mxCell id="jGLkCVWI29NbfTgAQsgJ-15" style="edgeStyle=orthogonalEdgeStyle;rounded=0;orthogonalLoop=1;jettySize=auto;html=1;exitX=0.5;exitY=0;exitDx=0;exitDy=0;entryX=0;entryY=0.5;entryDx=0;entryDy=0;startArrow=none;startFill=0;endArrow=classic;endFill=1;" parent="1c1d494c118603dd-1" source="jGLkCVWI29NbfTgAQsgJ-10" target="jGLkCVWI29NbfTgAQsgJ-14" edge="1">
          <mxGeometry relative="1" as="geometry" />
        </mxCell>
        <mxCell id="1c1d494c118603dd-2" value="Prepare" style="swimlane;html=1;startSize=20;fillColor=none;labelBackgroundColor=default;" parent="1c1d494c118603dd-1" vertex="1">
          <mxGeometry y="20" width="250" height="970" as="geometry" />
        </mxCell>
        <mxCell id="1c1d494c118603dd-34" style="edgeStyle=none;rounded=0;html=1;labelBackgroundColor=none;startArrow=none;startFill=0;startSize=5;endArrow=classicThin;endFill=1;endSize=5;jettySize=auto;orthogonalLoop=1;strokeWidth=1;fontFamily=Verdana;fontSize=12;fillColor=#f5f5f5;strokeColor=#666666;" parent="1c1d494c118603dd-2" source="1c1d494c118603dd-6" target="1c1d494c118603dd-10" edge="1">
          <mxGeometry relative="1" as="geometry" />
        </mxCell>
        <mxCell id="jGLkCVWI29NbfTgAQsgJ-2" style="edgeStyle=orthogonalEdgeStyle;rounded=0;orthogonalLoop=1;jettySize=auto;html=1;entryX=0;entryY=0.5;entryDx=0;entryDy=0;entryPerimeter=0;dashed=1;startArrow=classic;startFill=1;endArrow=none;endFill=0;fillColor=#f5f5f5;strokeColor=#666666;" parent="1c1d494c118603dd-2" target="jGLkCVWI29NbfTgAQsgJ-1" edge="1">
          <mxGeometry relative="1" as="geometry">
            <mxPoint x="140" y="160" as="sourcePoint" />
            <Array as="points">
              <mxPoint x="50" y="160" />
              <mxPoint x="50" y="331" />
            </Array>
          </mxGeometry>
        </mxCell>
        <mxCell id="1c1d494c118603dd-6" value="threat modeling" style="rounded=1;whiteSpace=wrap;html=1;shadow=0;comic=0;labelBackgroundColor=none;strokeWidth=1;fontFamily=Verdana;fontSize=12;align=center;arcSize=50;fillColor=#f5f5f5;fontColor=#333333;strokeColor=#666666;" parent="1c1d494c118603dd-2" vertex="1">
          <mxGeometry x="20" y="40" width="100" height="30" as="geometry" />
        </mxCell>
        <mxCell id="1c1d494c118603dd-10" value="threat model" style="rounded=0;whiteSpace=wrap;html=1;shadow=0;comic=0;labelBackgroundColor=none;strokeWidth=1;fontFamily=Verdana;fontSize=12;align=center;arcSize=50;fillColor=#f5f5f5;fontColor=#333333;strokeColor=#666666;" parent="1c1d494c118603dd-2" vertex="1">
          <mxGeometry x="145" y="150" width="70" height="30" as="geometry" />
        </mxCell>
        <mxCell id="1c1d494c118603dd-47" style="edgeStyle=none;rounded=0;html=1;dashed=1;labelBackgroundColor=none;startArrow=none;startFill=0;startSize=5;endArrow=classic;endFill=1;endSize=5;jettySize=auto;orthogonalLoop=1;strokeWidth=1;fontFamily=Verdana;fontSize=12;fillColor=#f5f5f5;strokeColor=#666666;" parent="1c1d494c118603dd-2" source="1c1d494c118603dd-21" target="1c1d494c118603dd-10" edge="1">
          <mxGeometry relative="1" as="geometry" />
        </mxCell>
        <mxCell id="1c1d494c118603dd-21" value="countermeasures" style="shape=note;whiteSpace=wrap;html=1;rounded=0;shadow=0;comic=0;labelBackgroundColor=none;strokeWidth=1;fontFamily=Verdana;fontSize=12;align=center;size=20;fillColor=#f5f5f5;fontColor=#333333;strokeColor=#666666;" parent="1c1d494c118603dd-2" vertex="1">
          <mxGeometry x="60" y="220" width="130" height="52" as="geometry" />
        </mxCell>
        <mxCell id="jGLkCVWI29NbfTgAQsgJ-123" style="edgeStyle=orthogonalEdgeStyle;rounded=0;orthogonalLoop=1;jettySize=auto;html=1;exitX=0;exitY=0;exitDx=43.75;exitDy=0;exitPerimeter=0;entryX=0;entryY=1;entryDx=0;entryDy=0;startArrow=none;startFill=0;endArrow=classic;endFill=1;dashed=1;" parent="1c1d494c118603dd-2" source="kagWY_kP_bPSUyUD9OyW-99" target="1c1d494c118603dd-10" edge="1">
          <mxGeometry relative="1" as="geometry">
            <Array as="points">
              <mxPoint x="64" y="400" />
              <mxPoint x="30" y="400" />
              <mxPoint x="30" y="180" />
            </Array>
          </mxGeometry>
        </mxCell>
        <mxCell id="kagWY_kP_bPSUyUD9OyW-99" value="&lt;div&gt;threats&lt;/div&gt;&lt;div&gt;&lt;br&gt;&lt;/div&gt;" style="shape=note;whiteSpace=wrap;html=1;rounded=0;shadow=0;comic=0;labelBackgroundColor=none;strokeWidth=1;fontFamily=Verdana;fontSize=12;align=center;size=20;fillColor=#f5f5f5;fontColor=#333333;strokeColor=#666666;" parent="1c1d494c118603dd-2" vertex="1">
          <mxGeometry x="20" y="392" width="107.5" height="42" as="geometry" />
        </mxCell>
        <mxCell id="jGLkCVWI29NbfTgAQsgJ-1" value="assets" style="shape=note;whiteSpace=wrap;html=1;rounded=0;shadow=0;comic=0;labelBackgroundColor=none;strokeWidth=1;fontFamily=Verdana;fontSize=12;align=center;size=20;fillColor=#f5f5f5;fontColor=#333333;strokeColor=#666666;" parent="1c1d494c118603dd-2" vertex="1">
          <mxGeometry x="60" y="310" width="107.5" height="42" as="geometry" />
        </mxCell>
        <mxCell id="1c1d494c118603dd-3" value="Categorize" style="swimlane;html=1;startSize=20;fillColor=none;" parent="1c1d494c118603dd-1" vertex="1">
          <mxGeometry x="250" y="20" width="250" height="970" as="geometry" />
        </mxCell>
        <mxCell id="jGLkCVWI29NbfTgAQsgJ-11" style="edgeStyle=orthogonalEdgeStyle;rounded=0;orthogonalLoop=1;jettySize=auto;html=1;exitX=0.75;exitY=0;exitDx=0;exitDy=0;entryX=0.131;entryY=0.971;entryDx=0;entryDy=0;entryPerimeter=0;" parent="1c1d494c118603dd-3" source="jGLkCVWI29NbfTgAQsgJ-3" target="jGLkCVWI29NbfTgAQsgJ-10" edge="1">
          <mxGeometry relative="1" as="geometry" />
        </mxCell>
        <mxCell id="jGLkCVWI29NbfTgAQsgJ-3" value="categorize information types" style="rounded=1;whiteSpace=wrap;html=1;shadow=0;comic=0;labelBackgroundColor=none;strokeWidth=1;fontFamily=Verdana;fontSize=12;align=center;arcSize=50;fillColor=#FFE6CC;strokeColor=#d79b00;" parent="1c1d494c118603dd-3" vertex="1">
          <mxGeometry x="10" y="320" width="145" height="70" as="geometry" />
        </mxCell>
        <mxCell id="jGLkCVWI29NbfTgAQsgJ-9" style="edgeStyle=orthogonalEdgeStyle;rounded=0;orthogonalLoop=1;jettySize=auto;html=1;dashed=1;" parent="1c1d494c118603dd-3" source="jGLkCVWI29NbfTgAQsgJ-4" edge="1">
          <mxGeometry relative="1" as="geometry">
            <mxPoint x="90" y="320" as="targetPoint" />
            <Array as="points">
              <mxPoint x="90" y="200" />
              <mxPoint x="90" y="200" />
            </Array>
          </mxGeometry>
        </mxCell>
        <mxCell id="jGLkCVWI29NbfTgAQsgJ-4" value="information types" style="shape=note;whiteSpace=wrap;html=1;rounded=0;shadow=0;comic=0;labelBackgroundColor=none;strokeWidth=1;fontFamily=Verdana;fontSize=12;align=center;size=20;fillColor=#FFE6CC;strokeColor=#d79b00;" parent="1c1d494c118603dd-3" vertex="1">
          <mxGeometry x="20" y="50" width="107.5" height="52" as="geometry" />
        </mxCell>
        <mxCell id="jGLkCVWI29NbfTgAQsgJ-10" value="categorize system" style="rounded=1;whiteSpace=wrap;html=1;shadow=0;comic=0;labelBackgroundColor=none;strokeWidth=1;fontFamily=Verdana;fontSize=12;align=center;arcSize=50;fillColor=#FFE6CC;strokeColor=#d79b00;" parent="1c1d494c118603dd-3" vertex="1">
          <mxGeometry x="100" y="120" width="145" height="70" as="geometry" />
        </mxCell>
        <mxCell id="jGLkCVWI29NbfTgAQsgJ-30" value="define system capabilities" style="rounded=1;whiteSpace=wrap;html=1;shadow=0;comic=0;labelBackgroundColor=none;strokeWidth=1;fontFamily=Verdana;fontSize=12;align=center;arcSize=50;fillColor=#f5f5f5;fontColor=#333333;strokeColor=#666666;" parent="1c1d494c118603dd-3" vertex="1">
          <mxGeometry x="16" y="430" width="145" height="70" as="geometry" />
        </mxCell>
        <mxCell id="jGLkCVWI29NbfTgAQsgJ-55" style="edgeStyle=orthogonalEdgeStyle;rounded=0;orthogonalLoop=1;jettySize=auto;html=1;exitX=1;exitY=0.5;exitDx=0;exitDy=0;entryX=0;entryY=0.5;entryDx=0;entryDy=0;startArrow=none;startFill=0;endArrow=classic;endFill=1;dashed=1;" parent="1c1d494c118603dd-1" source="jGLkCVWI29NbfTgAQsgJ-30" target="jGLkCVWI29NbfTgAQsgJ-52" edge="1">
          <mxGeometry relative="1" as="geometry" />
        </mxCell>
        <mxCell id="jGLkCVWI29NbfTgAQsgJ-31" style="edgeStyle=orthogonalEdgeStyle;rounded=0;orthogonalLoop=1;jettySize=auto;html=1;exitX=0;exitY=0.5;exitDx=0;exitDy=0;entryX=0;entryY=0;entryDx=130;entryDy=36;startArrow=classic;startFill=1;endArrow=none;endFill=0;dashed=1;entryPerimeter=0;" parent="1c1d494c118603dd-1" source="jGLkCVWI29NbfTgAQsgJ-30" target="1c1d494c118603dd-21" edge="1">
          <mxGeometry relative="1" as="geometry">
            <Array as="points">
              <mxPoint x="210" y="485" />
              <mxPoint x="210" y="281" />
              <mxPoint x="190" y="281" />
            </Array>
          </mxGeometry>
        </mxCell>
        <mxCell id="1c1d494c118603dd-4" value="Select" style="swimlane;html=1;startSize=20;fillColor=none;" parent="1c1d494c118603dd-1" vertex="1">
          <mxGeometry x="500" y="20" width="250" height="970" as="geometry" />
        </mxCell>
        <mxCell id="jGLkCVWI29NbfTgAQsgJ-17" style="edgeStyle=orthogonalEdgeStyle;rounded=0;orthogonalLoop=1;jettySize=auto;html=1;entryX=0.5;entryY=0;entryDx=0;entryDy=0;startArrow=none;startFill=0;endArrow=classic;endFill=1;" parent="1c1d494c118603dd-4" source="jGLkCVWI29NbfTgAQsgJ-14" target="jGLkCVWI29NbfTgAQsgJ-16" edge="1">
          <mxGeometry relative="1" as="geometry" />
        </mxCell>
        <mxCell id="jGLkCVWI29NbfTgAQsgJ-14" value="select impact level" style="rounded=1;whiteSpace=wrap;html=1;shadow=0;comic=0;labelBackgroundColor=none;strokeWidth=1;fontFamily=Verdana;fontSize=12;align=center;arcSize=50;fillColor=#FFE6CC;strokeColor=#b46504;" parent="1c1d494c118603dd-4" vertex="1">
          <mxGeometry x="52.5" y="41" width="145" height="70" as="geometry" />
        </mxCell>
        <mxCell id="jGLkCVWI29NbfTgAQsgJ-56" style="edgeStyle=orthogonalEdgeStyle;rounded=0;orthogonalLoop=1;jettySize=auto;html=1;exitX=0.5;exitY=1;exitDx=0;exitDy=0;entryX=0.5;entryY=0;entryDx=0;entryDy=0;startArrow=none;startFill=0;endArrow=classic;endFill=1;" parent="1c1d494c118603dd-4" source="jGLkCVWI29NbfTgAQsgJ-16" target="jGLkCVWI29NbfTgAQsgJ-51" edge="1">
          <mxGeometry relative="1" as="geometry" />
        </mxCell>
        <mxCell id="jGLkCVWI29NbfTgAQsgJ-16" value="select security &amp;amp; privacy controls" style="rounded=1;whiteSpace=wrap;html=1;shadow=0;comic=0;labelBackgroundColor=none;strokeWidth=1;fontFamily=Verdana;fontSize=12;align=center;arcSize=50;fillColor=#f8cecc;strokeColor=#b85450;" parent="1c1d494c118603dd-4" vertex="1">
          <mxGeometry x="52.5" y="150" width="145" height="70" as="geometry" />
        </mxCell>
        <mxCell id="jGLkCVWI29NbfTgAQsgJ-51" value="scope &amp;amp; tailor system controls" style="rounded=1;whiteSpace=wrap;html=1;shadow=0;comic=0;labelBackgroundColor=none;strokeWidth=1;fontFamily=Verdana;fontSize=12;align=center;arcSize=50;fillColor=#f8cecc;strokeColor=#b85450;" parent="1c1d494c118603dd-4" vertex="1">
          <mxGeometry x="52.5" y="260" width="145" height="70" as="geometry" />
        </mxCell>
        <mxCell id="jGLkCVWI29NbfTgAQsgJ-52" value="prioritize capabilities" style="rounded=1;whiteSpace=wrap;html=1;shadow=0;comic=0;labelBackgroundColor=none;strokeWidth=1;fontFamily=Verdana;fontSize=12;align=center;arcSize=50;fillColor=#f5f5f5;fontColor=#333333;strokeColor=#666666;" parent="1c1d494c118603dd-4" vertex="1">
          <mxGeometry x="52.5" y="380" width="145" height="70" as="geometry" />
        </mxCell>
        <mxCell id="jGLkCVWI29NbfTgAQsgJ-57" style="edgeStyle=orthogonalEdgeStyle;rounded=0;orthogonalLoop=1;jettySize=auto;html=1;startArrow=none;startFill=0;endArrow=classic;endFill=1;entryX=0.5;entryY=0;entryDx=0;entryDy=0;" parent="1c1d494c118603dd-4" source="jGLkCVWI29NbfTgAQsgJ-51" target="jGLkCVWI29NbfTgAQsgJ-52" edge="1">
          <mxGeometry relative="1" as="geometry">
            <mxPoint x="125" y="420" as="targetPoint" />
          </mxGeometry>
        </mxCell>
        <mxCell id="DRPRnmacGMGVBMYG5AFf-6" style="edgeStyle=orthogonalEdgeStyle;rounded=0;orthogonalLoop=1;jettySize=auto;html=1;exitX=0;exitY=0.5;exitDx=0;exitDy=0;entryX=0;entryY=0.5;entryDx=0;entryDy=0;dashed=1;startArrow=none;startFill=0;endArrow=classic;endFill=1;" edge="1" parent="1c1d494c118603dd-4" source="jGLkCVWI29NbfTgAQsgJ-34" target="-I-ueBFiIiKekDUDnQmG-21">
          <mxGeometry relative="1" as="geometry" />
        </mxCell>
        <mxCell id="jGLkCVWI29NbfTgAQsgJ-34" value="OSCAL Profile" style="shape=document;whiteSpace=wrap;html=1;boundedLbl=1;fillColor=#F8CECC;strokeColor=#b46504;gradientColor=none;gradientDirection=east;" parent="1c1d494c118603dd-4" vertex="1">
          <mxGeometry x="35" y="510" width="180" height="80" as="geometry" />
        </mxCell>
        <mxCell id="-I-ueBFiIiKekDUDnQmG-21" value="Custom OSCAL Catalog" style="shape=document;whiteSpace=wrap;html=1;boundedLbl=1;fillColor=#F8CECC;strokeColor=#b46504;gradientColor=none;gradientDirection=east;" parent="1c1d494c118603dd-4" vertex="1">
          <mxGeometry x="35" y="600" width="180" height="80" as="geometry" />
        </mxCell>
        <mxCell id="kagWY_kP_bPSUyUD9OyW-2" value="Implement" style="swimlane;html=1;startSize=20;fillColor=none;" parent="1" vertex="1">
          <mxGeometry x="790" y="40" width="250" height="970" as="geometry" />
        </mxCell>
        <mxCell id="jGLkCVWI29NbfTgAQsgJ-72" style="edgeStyle=orthogonalEdgeStyle;rounded=0;orthogonalLoop=1;jettySize=auto;html=1;entryX=0.548;entryY=0.971;entryDx=0;entryDy=0;entryPerimeter=0;startArrow=none;startFill=0;endArrow=classic;endFill=1;" parent="kagWY_kP_bPSUyUD9OyW-2" source="jGLkCVWI29NbfTgAQsgJ-67" target="jGLkCVWI29NbfTgAQsgJ-69" edge="1">
          <mxGeometry relative="1" as="geometry" />
        </mxCell>
        <mxCell id="jGLkCVWI29NbfTgAQsgJ-67" value="&lt;div&gt;design system&lt;/div&gt;" style="rounded=1;whiteSpace=wrap;html=1;shadow=0;comic=0;labelBackgroundColor=none;strokeWidth=1;fontFamily=Verdana;fontSize=12;align=center;arcSize=50;fillColor=#f5f5f5;fontColor=#333333;strokeColor=#666666;" parent="kagWY_kP_bPSUyUD9OyW-2" vertex="1">
          <mxGeometry x="60" y="340" width="145" height="70" as="geometry" />
        </mxCell>
        <mxCell id="jGLkCVWI29NbfTgAQsgJ-73" style="edgeStyle=orthogonalEdgeStyle;rounded=0;orthogonalLoop=1;jettySize=auto;html=1;startArrow=none;startFill=0;endArrow=classic;endFill=1;" parent="kagWY_kP_bPSUyUD9OyW-2" source="jGLkCVWI29NbfTgAQsgJ-69" target="jGLkCVWI29NbfTgAQsgJ-70" edge="1">
          <mxGeometry relative="1" as="geometry" />
        </mxCell>
        <mxCell id="jGLkCVWI29NbfTgAQsgJ-69" value="implement &amp;amp; document system" style="rounded=1;whiteSpace=wrap;html=1;shadow=0;comic=0;labelBackgroundColor=none;strokeWidth=1;fontFamily=Verdana;fontSize=12;align=center;arcSize=50;fillColor=#FFE6CC;strokeColor=#d79b00;" parent="kagWY_kP_bPSUyUD9OyW-2" vertex="1">
          <mxGeometry x="52.5" y="210" width="145" height="70" as="geometry" />
        </mxCell>
        <mxCell id="jGLkCVWI29NbfTgAQsgJ-70" value="&lt;div&gt;(automate)&lt;/div&gt;&lt;div&gt;test security &amp;amp; privacy controls&lt;/div&gt;" style="rounded=1;whiteSpace=wrap;html=1;shadow=0;comic=0;labelBackgroundColor=none;strokeWidth=1;fontFamily=Verdana;fontSize=12;align=center;arcSize=50;fillColor=#FFE6CC;strokeColor=#d79b00;" parent="kagWY_kP_bPSUyUD9OyW-2" vertex="1">
          <mxGeometry x="52.5" y="40" width="145" height="70" as="geometry" />
        </mxCell>
        <mxCell id="jGLkCVWI29NbfTgAQsgJ-33" value="&lt;div&gt;OSCAL&lt;br&gt;&lt;/div&gt;&lt;div&gt;System Security Plan&lt;/div&gt;" style="shape=document;whiteSpace=wrap;html=1;boundedLbl=1;fillColor=#FFE6CC;strokeColor=#d79b00;gradientColor=#D4E1F5;gradientDirection=east;" parent="kagWY_kP_bPSUyUD9OyW-2" vertex="1">
          <mxGeometry x="-420" y="690" width="1060" height="80" as="geometry" />
        </mxCell>
        <mxCell id="kagWY_kP_bPSUyUD9OyW-31" value="Assess" style="swimlane;html=1;startSize=20;fillColor=none;" parent="1" vertex="1">
          <mxGeometry x="1040" y="40" width="250" height="970" as="geometry" />
        </mxCell>
        <mxCell id="kagWY_kP_bPSUyUD9OyW-32" style="edgeStyle=orthogonalEdgeStyle;rounded=0;html=1;labelBackgroundColor=none;startArrow=none;startFill=0;startSize=5;endArrow=classicThin;endFill=1;endSize=5;jettySize=auto;orthogonalLoop=1;strokeWidth=1;fontFamily=Verdana;fontSize=12" parent="kagWY_kP_bPSUyUD9OyW-31" edge="1">
          <mxGeometry relative="1" as="geometry">
            <mxPoint x="100" y="110" as="targetPoint" />
          </mxGeometry>
        </mxCell>
        <mxCell id="jGLkCVWI29NbfTgAQsgJ-88" style="edgeStyle=orthogonalEdgeStyle;rounded=0;orthogonalLoop=1;jettySize=auto;html=1;exitX=0.5;exitY=1;exitDx=0;exitDy=0;entryX=0.5;entryY=0;entryDx=0;entryDy=0;startArrow=none;startFill=0;endArrow=classic;endFill=1;" parent="kagWY_kP_bPSUyUD9OyW-31" source="jGLkCVWI29NbfTgAQsgJ-82" target="jGLkCVWI29NbfTgAQsgJ-84" edge="1">
          <mxGeometry relative="1" as="geometry" />
        </mxCell>
        <mxCell id="jGLkCVWI29NbfTgAQsgJ-89" style="edgeStyle=orthogonalEdgeStyle;rounded=0;orthogonalLoop=1;jettySize=auto;html=1;exitX=0.5;exitY=1;exitDx=0;exitDy=0;entryX=0.5;entryY=0;entryDx=0;entryDy=0;startArrow=none;startFill=0;endArrow=classic;endFill=1;" parent="kagWY_kP_bPSUyUD9OyW-31" source="jGLkCVWI29NbfTgAQsgJ-82" target="jGLkCVWI29NbfTgAQsgJ-85" edge="1">
          <mxGeometry relative="1" as="geometry" />
        </mxCell>
        <mxCell id="jGLkCVWI29NbfTgAQsgJ-90" style="edgeStyle=orthogonalEdgeStyle;rounded=0;orthogonalLoop=1;jettySize=auto;html=1;exitX=0.5;exitY=1;exitDx=0;exitDy=0;entryX=0.5;entryY=0;entryDx=0;entryDy=0;startArrow=none;startFill=0;endArrow=classic;endFill=1;" parent="kagWY_kP_bPSUyUD9OyW-31" source="jGLkCVWI29NbfTgAQsgJ-82" target="jGLkCVWI29NbfTgAQsgJ-86" edge="1">
          <mxGeometry relative="1" as="geometry" />
        </mxCell>
        <mxCell id="jGLkCVWI29NbfTgAQsgJ-82" value="begin assessment cycle" style="rounded=1;whiteSpace=wrap;html=1;shadow=0;comic=0;labelBackgroundColor=none;strokeWidth=1;fontFamily=Verdana;fontSize=12;align=center;arcSize=50;fillColor=#e1d5e7;strokeColor=#9673a6;" parent="kagWY_kP_bPSUyUD9OyW-31" vertex="1">
          <mxGeometry x="52.5" y="40" width="145" height="70" as="geometry" />
        </mxCell>
        <mxCell id="jGLkCVWI29NbfTgAQsgJ-91" style="edgeStyle=orthogonalEdgeStyle;rounded=0;orthogonalLoop=1;jettySize=auto;html=1;exitX=0.5;exitY=1;exitDx=0;exitDy=0;entryX=0.5;entryY=0;entryDx=0;entryDy=0;startArrow=none;startFill=0;endArrow=classic;endFill=1;" parent="kagWY_kP_bPSUyUD9OyW-31" source="jGLkCVWI29NbfTgAQsgJ-84" target="jGLkCVWI29NbfTgAQsgJ-87" edge="1">
          <mxGeometry relative="1" as="geometry" />
        </mxCell>
        <mxCell id="jGLkCVWI29NbfTgAQsgJ-84" value="interview system staff" style="rounded=1;whiteSpace=wrap;html=1;shadow=0;comic=0;labelBackgroundColor=none;strokeWidth=1;fontFamily=Verdana;fontSize=12;align=center;arcSize=50;fillColor=#e1d5e7;strokeColor=#9673a6;" parent="kagWY_kP_bPSUyUD9OyW-31" vertex="1">
          <mxGeometry x="10" y="190" width="60" height="120" as="geometry" />
        </mxCell>
        <mxCell id="jGLkCVWI29NbfTgAQsgJ-85" value="examine system" style="rounded=1;whiteSpace=wrap;html=1;shadow=0;comic=0;labelBackgroundColor=none;strokeWidth=1;fontFamily=Verdana;fontSize=12;align=center;arcSize=50;fillColor=#e1d5e7;strokeColor=#9673a6;" parent="kagWY_kP_bPSUyUD9OyW-31" vertex="1">
          <mxGeometry x="93.11999999999999" y="190" width="63.75" height="120" as="geometry" />
        </mxCell>
        <mxCell id="jGLkCVWI29NbfTgAQsgJ-93" style="edgeStyle=orthogonalEdgeStyle;rounded=0;orthogonalLoop=1;jettySize=auto;html=1;exitX=0.5;exitY=1;exitDx=0;exitDy=0;entryX=0.5;entryY=0;entryDx=0;entryDy=0;startArrow=none;startFill=0;endArrow=classic;endFill=1;" parent="kagWY_kP_bPSUyUD9OyW-31" source="jGLkCVWI29NbfTgAQsgJ-86" target="jGLkCVWI29NbfTgAQsgJ-87" edge="1">
          <mxGeometry relative="1" as="geometry" />
        </mxCell>
        <mxCell id="jGLkCVWI29NbfTgAQsgJ-86" value="examine system" style="rounded=1;whiteSpace=wrap;html=1;shadow=0;comic=0;labelBackgroundColor=none;strokeWidth=1;fontFamily=Verdana;fontSize=12;align=center;arcSize=50;fillColor=#e1d5e7;strokeColor=#9673a6;" parent="kagWY_kP_bPSUyUD9OyW-31" vertex="1">
          <mxGeometry x="170" y="190" width="60" height="120" as="geometry" />
        </mxCell>
        <mxCell id="jGLkCVWI29NbfTgAQsgJ-87" value="complete assessment and draft report" style="rounded=1;whiteSpace=wrap;html=1;shadow=0;comic=0;labelBackgroundColor=none;strokeWidth=1;fontFamily=Verdana;fontSize=12;align=center;arcSize=50;fillColor=#e1d5e7;strokeColor=#9673a6;" parent="kagWY_kP_bPSUyUD9OyW-31" vertex="1">
          <mxGeometry x="52.5" y="400" width="145" height="70" as="geometry" />
        </mxCell>
        <mxCell id="jGLkCVWI29NbfTgAQsgJ-92" style="edgeStyle=orthogonalEdgeStyle;rounded=0;orthogonalLoop=1;jettySize=auto;html=1;exitX=0.5;exitY=1;exitDx=0;exitDy=0;startArrow=none;startFill=0;endArrow=classic;endFill=1;entryX=0.5;entryY=0;entryDx=0;entryDy=0;" parent="kagWY_kP_bPSUyUD9OyW-31" source="jGLkCVWI29NbfTgAQsgJ-85" target="jGLkCVWI29NbfTgAQsgJ-87" edge="1">
          <mxGeometry relative="1" as="geometry">
            <mxPoint x="125" y="420" as="targetPoint" />
          </mxGeometry>
        </mxCell>
        <mxCell id="kagWY_kP_bPSUyUD9OyW-60" value="Authorize" style="swimlane;html=1;startSize=20;fillColor=none;" parent="1" vertex="1">
          <mxGeometry x="1290" y="40" width="250" height="970" as="geometry" />
        </mxCell>
        <mxCell id="jGLkCVWI29NbfTgAQsgJ-74" value="&lt;div&gt;approve&lt;/div&gt;&lt;div&gt;initial authorization&lt;/div&gt;" style="rounded=1;whiteSpace=wrap;html=1;shadow=0;comic=0;labelBackgroundColor=none;strokeWidth=1;fontFamily=Verdana;fontSize=12;align=center;arcSize=50;fillColor=#D4E1F5;strokeColor=#10739e;" parent="kagWY_kP_bPSUyUD9OyW-60" vertex="1">
          <mxGeometry x="52.5" y="40" width="145" height="70" as="geometry" />
        </mxCell>
        <mxCell id="jGLkCVWI29NbfTgAQsgJ-47" value="&lt;div&gt;OSCAL&lt;br&gt;Assessment Plan&lt;/div&gt;" style="shape=document;whiteSpace=wrap;html=1;boundedLbl=1;fillColor=#e1d5e7;strokeColor=#9673a6;gradientColor=#D5E8D4;gradientDirection=east;" parent="kagWY_kP_bPSUyUD9OyW-60" vertex="1">
          <mxGeometry x="-170" y="790" width="610" height="80" as="geometry" />
        </mxCell>
        <mxCell id="jGLkCVWI29NbfTgAQsgJ-68" style="edgeStyle=orthogonalEdgeStyle;rounded=0;orthogonalLoop=1;jettySize=auto;html=1;exitX=1;exitY=0.5;exitDx=0;exitDy=0;startArrow=none;startFill=0;endArrow=classic;endFill=1;" parent="1" source="jGLkCVWI29NbfTgAQsgJ-52" target="jGLkCVWI29NbfTgAQsgJ-67" edge="1">
          <mxGeometry relative="1" as="geometry" />
        </mxCell>
        <mxCell id="jGLkCVWI29NbfTgAQsgJ-76" value="Monitor" style="swimlane;html=1;startSize=20;fillColor=none;" parent="1" vertex="1">
          <mxGeometry x="1540" y="40" width="250" height="970" as="geometry" />
        </mxCell>
        <mxCell id="jGLkCVWI29NbfTgAQsgJ-96" value="administer continuous monitoring program" style="rounded=1;whiteSpace=wrap;html=1;shadow=0;comic=0;labelBackgroundColor=none;strokeWidth=1;fontFamily=Verdana;fontSize=12;align=center;arcSize=50;fillColor=#d5e8d4;strokeColor=#82b366;" parent="jGLkCVWI29NbfTgAQsgJ-76" vertex="1">
          <mxGeometry x="62.5" y="40" width="145" height="70" as="geometry" />
        </mxCell>
        <mxCell id="jGLkCVWI29NbfTgAQsgJ-75" value="&lt;div&gt;approve&lt;/div&gt;&lt;div&gt;ongoing authorization&lt;/div&gt;" style="rounded=1;whiteSpace=wrap;html=1;shadow=0;comic=0;labelBackgroundColor=none;strokeWidth=1;fontFamily=Verdana;fontSize=12;align=center;arcSize=50;fillColor=#D4E1F5;strokeColor=#10739e;" parent="jGLkCVWI29NbfTgAQsgJ-76" vertex="1">
          <mxGeometry x="-70" y="440" width="145" height="70" as="geometry" />
        </mxCell>
        <mxCell id="jGLkCVWI29NbfTgAQsgJ-81" value="OSCAL&lt;br&gt;Plans of Actions &amp;amp; Milestones" style="shape=document;whiteSpace=wrap;html=1;boundedLbl=1;fillColor=#d5e8d4;strokeColor=#82b366;" parent="jGLkCVWI29NbfTgAQsgJ-76" vertex="1">
          <mxGeometry x="62.5" y="700" width="120" height="80" as="geometry" />
        </mxCell>
        <mxCell id="jGLkCVWI29NbfTgAQsgJ-94" style="edgeStyle=orthogonalEdgeStyle;rounded=0;orthogonalLoop=1;jettySize=auto;html=1;exitX=1;exitY=0.5;exitDx=0;exitDy=0;entryX=0.548;entryY=1.057;entryDx=0;entryDy=0;entryPerimeter=0;startArrow=none;startFill=0;endArrow=classic;endFill=1;" parent="1" source="jGLkCVWI29NbfTgAQsgJ-87" target="jGLkCVWI29NbfTgAQsgJ-74" edge="1">
          <mxGeometry relative="1" as="geometry" />
        </mxCell>
        <mxCell id="jGLkCVWI29NbfTgAQsgJ-95" style="edgeStyle=orthogonalEdgeStyle;rounded=0;orthogonalLoop=1;jettySize=auto;html=1;exitX=1;exitY=0.5;exitDx=0;exitDy=0;entryX=0;entryY=0.5;entryDx=0;entryDy=0;startArrow=none;startFill=0;endArrow=classic;endFill=1;" parent="1" source="jGLkCVWI29NbfTgAQsgJ-70" target="jGLkCVWI29NbfTgAQsgJ-82" edge="1">
          <mxGeometry relative="1" as="geometry" />
        </mxCell>
        <mxCell id="jGLkCVWI29NbfTgAQsgJ-117" style="edgeStyle=orthogonalEdgeStyle;rounded=0;orthogonalLoop=1;jettySize=auto;html=1;exitX=0.5;exitY=1;exitDx=0;exitDy=0;startArrow=none;startFill=0;endArrow=classic;endFill=1;" parent="1" source="jGLkCVWI29NbfTgAQsgJ-98" edge="1">
          <mxGeometry relative="1" as="geometry">
            <mxPoint x="1588" y="480" as="targetPoint" />
          </mxGeometry>
        </mxCell>
        <mxCell id="jGLkCVWI29NbfTgAQsgJ-98" value="interview system staff" style="rounded=1;whiteSpace=wrap;html=1;shadow=0;comic=0;labelBackgroundColor=none;strokeWidth=1;fontFamily=Verdana;fontSize=12;align=center;arcSize=50;fillColor=#d5e8d4;strokeColor=#82b366;" parent="1" vertex="1">
          <mxGeometry x="1558" y="233" width="60" height="120" as="geometry" />
        </mxCell>
        <mxCell id="jGLkCVWI29NbfTgAQsgJ-119" style="edgeStyle=orthogonalEdgeStyle;rounded=0;orthogonalLoop=1;jettySize=auto;html=1;exitX=0.5;exitY=1;exitDx=0;exitDy=0;entryX=1;entryY=0.25;entryDx=0;entryDy=0;startArrow=none;startFill=0;endArrow=classic;endFill=1;" parent="1" source="jGLkCVWI29NbfTgAQsgJ-99" target="jGLkCVWI29NbfTgAQsgJ-75" edge="1">
          <mxGeometry relative="1" as="geometry" />
        </mxCell>
        <mxCell id="jGLkCVWI29NbfTgAQsgJ-99" value="examine system" style="rounded=1;whiteSpace=wrap;html=1;shadow=0;comic=0;labelBackgroundColor=none;strokeWidth=1;fontFamily=Verdana;fontSize=12;align=center;arcSize=50;fillColor=#d5e8d4;strokeColor=#82b366;" parent="1" vertex="1">
          <mxGeometry x="1641.12" y="233" width="63.75" height="120" as="geometry" />
        </mxCell>
        <mxCell id="jGLkCVWI29NbfTgAQsgJ-108" style="edgeStyle=orthogonalEdgeStyle;rounded=0;orthogonalLoop=1;jettySize=auto;html=1;exitX=0.5;exitY=1;exitDx=0;exitDy=0;entryX=1.007;entryY=0.629;entryDx=0;entryDy=0;startArrow=none;startFill=0;endArrow=classic;endFill=1;entryPerimeter=0;" parent="1" source="jGLkCVWI29NbfTgAQsgJ-100" target="jGLkCVWI29NbfTgAQsgJ-75" edge="1">
          <mxGeometry relative="1" as="geometry">
            <Array as="points">
              <mxPoint x="1748" y="524" />
            </Array>
          </mxGeometry>
        </mxCell>
        <mxCell id="jGLkCVWI29NbfTgAQsgJ-100" value="examine system" style="rounded=1;whiteSpace=wrap;html=1;shadow=0;comic=0;labelBackgroundColor=none;strokeWidth=1;fontFamily=Verdana;fontSize=12;align=center;arcSize=50;fillColor=#d5e8d4;strokeColor=#82b366;" parent="1" vertex="1">
          <mxGeometry x="1718" y="233" width="60" height="120" as="geometry" />
        </mxCell>
        <mxCell id="jGLkCVWI29NbfTgAQsgJ-101" style="edgeStyle=orthogonalEdgeStyle;rounded=0;orthogonalLoop=1;jettySize=auto;html=1;exitX=1;exitY=0.5;exitDx=0;exitDy=0;startArrow=none;startFill=0;endArrow=classic;endFill=1;" parent="1" source="jGLkCVWI29NbfTgAQsgJ-74" edge="1">
          <mxGeometry relative="1" as="geometry">
            <mxPoint x="1600" y="115" as="targetPoint" />
          </mxGeometry>
        </mxCell>
        <mxCell id="jGLkCVWI29NbfTgAQsgJ-105" style="edgeStyle=orthogonalEdgeStyle;rounded=0;orthogonalLoop=1;jettySize=auto;html=1;exitX=0.5;exitY=1;exitDx=0;exitDy=0;startArrow=none;startFill=0;endArrow=classic;endFill=1;" parent="1" source="jGLkCVWI29NbfTgAQsgJ-96" edge="1">
          <mxGeometry relative="1" as="geometry">
            <mxPoint x="1675" y="230" as="targetPoint" />
          </mxGeometry>
        </mxCell>
        <mxCell id="jGLkCVWI29NbfTgAQsgJ-106" style="edgeStyle=orthogonalEdgeStyle;rounded=0;orthogonalLoop=1;jettySize=auto;html=1;exitX=0.5;exitY=1;exitDx=0;exitDy=0;startArrow=none;startFill=0;endArrow=classic;endFill=1;" parent="1" source="jGLkCVWI29NbfTgAQsgJ-96" edge="1">
          <mxGeometry relative="1" as="geometry">
            <mxPoint x="1750" y="230" as="targetPoint" />
          </mxGeometry>
        </mxCell>
        <mxCell id="jGLkCVWI29NbfTgAQsgJ-107" style="edgeStyle=orthogonalEdgeStyle;rounded=0;orthogonalLoop=1;jettySize=auto;html=1;exitX=0.5;exitY=1;exitDx=0;exitDy=0;startArrow=none;startFill=0;endArrow=classic;endFill=1;" parent="1" source="jGLkCVWI29NbfTgAQsgJ-96" edge="1">
          <mxGeometry relative="1" as="geometry">
            <mxPoint x="1590" y="230" as="targetPoint" />
          </mxGeometry>
        </mxCell>
        <mxCell id="jGLkCVWI29NbfTgAQsgJ-118" style="edgeStyle=orthogonalEdgeStyle;rounded=0;orthogonalLoop=1;jettySize=auto;html=1;exitX=0;exitY=0.5;exitDx=0;exitDy=0;entryX=0.403;entryY=1.014;entryDx=0;entryDy=0;entryPerimeter=0;startArrow=none;startFill=0;endArrow=classic;endFill=1;" parent="1" source="jGLkCVWI29NbfTgAQsgJ-75" target="jGLkCVWI29NbfTgAQsgJ-52" edge="1">
          <mxGeometry relative="1" as="geometry">
            <Array as="points">
              <mxPoint x="1470" y="530" />
              <mxPoint x="651" y="530" />
            </Array>
          </mxGeometry>
        </mxCell>
        <mxCell id="DRPRnmacGMGVBMYG5AFf-38" style="edgeStyle=orthogonalEdgeStyle;rounded=0;orthogonalLoop=1;jettySize=auto;html=1;dashed=1;startArrow=none;startFill=0;endArrow=classic;endFill=1;" edge="1" parent="1" source="-I-ueBFiIiKekDUDnQmG-2">
          <mxGeometry relative="1" as="geometry">
            <mxPoint x="720" y="810" as="targetPoint" />
          </mxGeometry>
        </mxCell>
        <mxCell id="-I-ueBFiIiKekDUDnQmG-2" value="&lt;div&gt;OSCAL&lt;/div&gt;&lt;div&gt;Component Definitions&lt;/div&gt;" style="shape=document;whiteSpace=wrap;html=1;boundedLbl=1;fillColor=#FFE6CC;strokeColor=#d79b00;gradientColor=#F8CECC;gradientDirection=east;" parent="1" vertex="1">
          <mxGeometry x="421.5" y="830" width="248.5" height="80" as="geometry" />
        </mxCell>
        <mxCell id="DRPRnmacGMGVBMYG5AFf-7" style="edgeStyle=orthogonalEdgeStyle;rounded=0;orthogonalLoop=1;jettySize=auto;html=1;exitX=0.73;exitY=0.727;exitDx=0;exitDy=0;entryX=0.317;entryY=-0.017;entryDx=0;entryDy=0;entryPerimeter=0;dashed=1;startArrow=none;startFill=0;endArrow=classic;endFill=1;exitPerimeter=0;" edge="1" parent="1" source="-I-ueBFiIiKekDUDnQmG-21" target="jGLkCVWI29NbfTgAQsgJ-33">
          <mxGeometry relative="1" as="geometry" />
        </mxCell>
        <mxCell id="DRPRnmacGMGVBMYG5AFf-33" style="edgeStyle=orthogonalEdgeStyle;rounded=0;orthogonalLoop=1;jettySize=auto;html=1;exitX=1;exitY=0.5;exitDx=0;exitDy=0;entryX=1;entryY=0.25;entryDx=0;entryDy=0;dashed=1;startArrow=none;startFill=0;endArrow=classic;endFill=1;" edge="1" parent="1" source="DRPRnmacGMGVBMYG5AFf-28" target="jGLkCVWI29NbfTgAQsgJ-81">
          <mxGeometry relative="1" as="geometry" />
        </mxCell>
        <mxCell id="DRPRnmacGMGVBMYG5AFf-28" value="&lt;div&gt;OSCAL&lt;br&gt;Assessment Results&lt;/div&gt;&lt;div&gt;&lt;br&gt;&lt;/div&gt;" style="shape=document;whiteSpace=wrap;html=1;boundedLbl=1;fillColor=#e1d5e7;strokeColor=#9673a6;gradientColor=#D5E8D4;gradientDirection=east;" vertex="1" parent="1">
          <mxGeometry x="1120" y="927" width="610" height="80" as="geometry" />
        </mxCell>
        <mxCell id="DRPRnmacGMGVBMYG5AFf-36" style="edgeStyle=orthogonalEdgeStyle;rounded=0;orthogonalLoop=1;jettySize=auto;html=1;entryX=0;entryY=0.25;entryDx=0;entryDy=0;dashed=1;startArrow=none;startFill=0;endArrow=classic;endFill=1;exitX=0.663;exitY=0.733;exitDx=0;exitDy=0;exitPerimeter=0;" edge="1" parent="1" source="jGLkCVWI29NbfTgAQsgJ-33" target="jGLkCVWI29NbfTgAQsgJ-47">
          <mxGeometry relative="1" as="geometry" />
        </mxCell>
        <mxCell id="DRPRnmacGMGVBMYG5AFf-37" style="edgeStyle=orthogonalEdgeStyle;rounded=0;orthogonalLoop=1;jettySize=auto;html=1;entryX=0;entryY=0.5;entryDx=0;entryDy=0;dashed=1;startArrow=none;startFill=0;endArrow=classic;endFill=1;exitX=0;exitY=0.75;exitDx=0;exitDy=0;" edge="1" parent="1" source="jGLkCVWI29NbfTgAQsgJ-47" target="DRPRnmacGMGVBMYG5AFf-28">
          <mxGeometry relative="1" as="geometry">
            <Array as="points">
              <mxPoint x="1070" y="890" />
              <mxPoint x="1070" y="967" />
            </Array>
          </mxGeometry>
        </mxCell>
        <mxCell id="DRPRnmacGMGVBMYG5AFf-39" style="edgeStyle=orthogonalEdgeStyle;rounded=0;orthogonalLoop=1;jettySize=auto;html=1;dashed=1;startArrow=none;startFill=0;endArrow=classic;endFill=1;" edge="1" parent="1" source="jGLkCVWI29NbfTgAQsgJ-81">
          <mxGeometry relative="1" as="geometry">
            <mxPoint x="930" y="730" as="targetPoint" />
            <Array as="points">
              <mxPoint x="1662" y="660" />
              <mxPoint x="930" y="660" />
            </Array>
          </mxGeometry>
        </mxCell>
      </root>
    </mxGraphModel>
  </diagram>
</mxfile>
